<mxfile host="65bd71144e">
    <diagram id="_H_IIofRGWlCvdBiCWD9" name="Components">
        <mxGraphModel dx="1052" dy="800" grid="1" gridSize="10" guides="1" tooltips="1" connect="1" arrows="1" fold="1" page="1" pageScale="1" pageWidth="850" pageHeight="1100" math="0" shadow="0">
            <root>
                <mxCell id="0"/>
                <mxCell id="1" parent="0"/>
                <mxCell id="4" value="Fronend" style="html=1;" parent="1" vertex="1">
                    <mxGeometry x="300" y="510" width="110" height="50" as="geometry"/>
                </mxCell>
                <mxCell id="8" value="CRUD operations" style="edgeStyle=none;html=1;startArrow=block;startFill=1;" parent="1" source="5" target="7" edge="1">
                    <mxGeometry relative="1" as="geometry"/>
                </mxCell>
                <mxCell id="9" value="HTTP comunication" style="edgeStyle=none;html=1;entryX=0;entryY=0.5;entryDx=0;entryDy=0;startArrow=block;startFill=1;" parent="1" source="5" target="6" edge="1">
                    <mxGeometry relative="1" as="geometry"/>
                </mxCell>
                <mxCell id="10" value="HTTP comunication" style="edgeStyle=none;html=1;startArrow=block;startFill=1;" parent="1" source="5" target="4" edge="1">
                    <mxGeometry relative="1" as="geometry"/>
                </mxCell>
                <mxCell id="5" value="API" style="html=1;" parent="1" vertex="1">
                    <mxGeometry x="300" y="340" width="110" height="50" as="geometry"/>
                </mxCell>
                <mxCell id="6" value="Kafka" style="html=1;" parent="1" vertex="1">
                    <mxGeometry x="580" y="340" width="110" height="50" as="geometry"/>
                </mxCell>
                <mxCell id="7" value="DB" style="shape=cylinder;whiteSpace=wrap;html=1;boundedLbl=1;backgroundOutline=1;" parent="1" vertex="1">
                    <mxGeometry x="325" y="150" width="60" height="80" as="geometry"/>
                </mxCell>
            </root>
        </mxGraphModel>
    </diagram>
    <diagram name="Architecture" id="WIdH1srOGad4-v5lgGvI">
        <mxGraphModel dx="1052" dy="800" grid="1" gridSize="10" guides="1" tooltips="1" connect="1" arrows="1" fold="1" page="1" pageScale="1" pageWidth="850" pageHeight="1100" math="0" shadow="0">
            <root>
                <mxCell id="g50uEORTnrf_nYroKi00-0"/>
                <mxCell id="g50uEORTnrf_nYroKi00-1" parent="g50uEORTnrf_nYroKi00-0"/>
                <mxCell id="g50uEORTnrf_nYroKi00-6" value="&lt;div style=&quot;&quot;&gt;&lt;span&gt;Backend API&lt;/span&gt;&lt;/div&gt;" style="html=1;align=left;labelPosition=center;verticalLabelPosition=top;verticalAlign=bottom;" vertex="1" parent="g50uEORTnrf_nYroKi00-1">
                    <mxGeometry x="167.5" y="290" width="385" height="260" as="geometry"/>
                </mxCell>
                <mxCell id="g50uEORTnrf_nYroKi00-12" style="edgeStyle=none;html=1;startArrow=classic;startFill=1;" edge="1" parent="g50uEORTnrf_nYroKi00-1" source="g50uEORTnrf_nYroKi00-2" target="g50uEORTnrf_nYroKi00-11">
                    <mxGeometry relative="1" as="geometry"/>
                </mxCell>
                <mxCell id="g50uEORTnrf_nYroKi00-13" value="HTTP&amp;nbsp; comunication" style="edgeLabel;html=1;align=center;verticalAlign=middle;resizable=0;points=[];" vertex="1" connectable="0" parent="g50uEORTnrf_nYroKi00-12">
                    <mxGeometry x="-0.4133" y="-5" relative="1" as="geometry">
                        <mxPoint as="offset"/>
                    </mxGeometry>
                </mxCell>
                <mxCell id="g50uEORTnrf_nYroKi00-2" value="Fronend" style="html=1;" vertex="1" parent="g50uEORTnrf_nYroKi00-1">
                    <mxGeometry x="305" y="650" width="110" height="50" as="geometry"/>
                </mxCell>
                <mxCell id="g50uEORTnrf_nYroKi00-7" value="Kafka" style="html=1;" vertex="1" parent="g50uEORTnrf_nYroKi00-1">
                    <mxGeometry x="590" y="450" width="110" height="50" as="geometry"/>
                </mxCell>
                <mxCell id="g50uEORTnrf_nYroKi00-8" value="DB" style="shape=cylinder;whiteSpace=wrap;html=1;boundedLbl=1;backgroundOutline=1;" vertex="1" parent="g50uEORTnrf_nYroKi00-1">
                    <mxGeometry x="325" y="150" width="60" height="80" as="geometry"/>
                </mxCell>
                <mxCell id="g50uEORTnrf_nYroKi00-16" value="CRUD operation" style="edgeStyle=none;html=1;entryX=0.5;entryY=1;entryDx=0;entryDy=0;startArrow=classic;startFill=1;" edge="1" parent="g50uEORTnrf_nYroKi00-1" source="g50uEORTnrf_nYroKi00-9" target="g50uEORTnrf_nYroKi00-8">
                    <mxGeometry relative="1" as="geometry"/>
                </mxCell>
                <mxCell id="g50uEORTnrf_nYroKi00-9" value="Model" style="html=1;dashed=0;whitespace=wrap;" vertex="1" parent="g50uEORTnrf_nYroKi00-1">
                    <mxGeometry x="220" y="340" width="100" height="50" as="geometry"/>
                </mxCell>
                <mxCell id="g50uEORTnrf_nYroKi00-10" value="View" style="html=1;dashed=0;whitespace=wrap;" vertex="1" parent="g50uEORTnrf_nYroKi00-1">
                    <mxGeometry x="420" y="340" width="100" height="50" as="geometry"/>
                </mxCell>
                <mxCell id="g50uEORTnrf_nYroKi00-14" value="Fetch data" style="edgeStyle=none;html=1;startArrow=classic;startFill=1;" edge="1" parent="g50uEORTnrf_nYroKi00-1" source="g50uEORTnrf_nYroKi00-11" target="g50uEORTnrf_nYroKi00-9">
                    <mxGeometry relative="1" as="geometry"/>
                </mxCell>
                <mxCell id="g50uEORTnrf_nYroKi00-15" value="Fetch presentation" style="edgeStyle=none;html=1;startArrow=classic;startFill=1;" edge="1" parent="g50uEORTnrf_nYroKi00-1" source="g50uEORTnrf_nYroKi00-11" target="g50uEORTnrf_nYroKi00-10">
                    <mxGeometry relative="1" as="geometry"/>
                </mxCell>
                <mxCell id="g50uEORTnrf_nYroKi00-17" value="HTTP comunication" style="edgeStyle=none;html=1;entryX=0;entryY=0.5;entryDx=0;entryDy=0;startArrow=classic;startFill=1;" edge="1" parent="g50uEORTnrf_nYroKi00-1" source="g50uEORTnrf_nYroKi00-11" target="g50uEORTnrf_nYroKi00-7">
                    <mxGeometry relative="1" as="geometry"/>
                </mxCell>
                <mxCell id="g50uEORTnrf_nYroKi00-11" value="Controller" style="html=1;dashed=0;whitespace=wrap;" vertex="1" parent="g50uEORTnrf_nYroKi00-1">
                    <mxGeometry x="310" y="450" width="100" height="50" as="geometry"/>
                </mxCell>
            </root>
        </mxGraphModel>
    </diagram>
</mxfile>